<?xml version="1.0" encoding="iso-8859-1"?>
<!-- Uploaded to: SVG Repo, www.svgrepo.com, Generator: SVG Repo Mixer Tools -->
<svg fill="#000000" height="800px" width="800px" version="1.1" id="Layer_1" xmlns="http://www.w3.org/2000/svg" xmlns:xlink="http://www.w3.org/1999/xlink" 
	 viewBox="0 0 512 512" xml:space="preserve">
<g>
	<g>
		<path d="M426.667,490.667h-53.333v-96c0-2.837-1.131-5.547-3.115-7.552L352,368.917V53.333c0-13.888-8.939-25.621-21.333-30.037
			V10.667C330.667,4.779,325.888,0,320,0s-10.667,4.779-10.667,10.667v12.629C296.939,27.712,288,39.445,288,53.333v315.584
			l-18.219,18.219c-1.984,1.984-3.115,4.693-3.115,7.531v96h-23.168l-41.024-215.339c-1.045-5.483-6.251-9.301-11.648-8.597
			l-96,10.667c-2.965,0.341-5.675,1.899-7.445,4.309c-1.771,2.411-2.432,5.461-1.835,8.384l40.107,200.576h-40.32
			c-5.888,0-10.667,4.779-10.667,10.667c0,5.888,4.779,10.667,10.667,10.667h149.333c0.149-0.021,0.299-0.021,0.427,0h191.573
			c5.888,0,10.667-4.779,10.667-10.667C437.333,495.445,432.555,490.667,426.667,490.667z"/>
	</g>
</g>
</svg>